inDegrees=yes
name=ik_S46_A13_T01
DataType=double
version=3
OpenSimVersion=4.3-2021-08-27-4bc7ad9
endheader
time	pelvis_tilt	pelvis_list	pelvis_rotation	pelvis_tx	pelvis_ty	pelvis_tz	hip_flexion_r	hip_adduction_r	hip_rotation_r	knee_angle_r	knee_angle_r_beta	ankle_angle_r	subtalar_angle_r	mtp_angle_r	hip_flexion_l	hip_adduction_l	hip_rotation_l	knee_angle_l	knee_angle_l_beta	ankle_angle_l	subtalar_angle_l	mtp_angle_l	lumbar_extension	lumbar_bending	lumbar_rotation	arm_flex_r	arm_add_r	arm_rot_r	elbow_flex_r	pro_sup_r	wrist_flex_r	wrist_dev_r	arm_flex_l	arm_add_l	arm_rot_l	elbow_flex_l	pro_sup_l	wrist_flex_l	wrist_dev_l
0	0	0	0	0	0.9399999999999999	0	0	0	0	0	0	0	0	0	0	0	0	0	0	0	0	0	0	0	0	0	0	0	0	89.99999999963507	0	0	0	0	0	0	89.99999999869995	0	0
0.02	-0.8934212168994017	-1.371111631058264	27.90395812497425	0	0.9399999999999999	0	2.355879919247763	-1.109827804550296	-0.7931691198922322	3.6500994792812	0.0637062539387875	0	0	0	2.355879919247763	-1.109827804550296	-0.7931691198922322	3.6500994792812	0.0637062539387875	0	0	0	0.6192346776660906	0.3927418945857094	9.896946720424102	23.22202623603422	-6.672519951998708	13.67482559045691	14.24935975615715	152.528077574418	0	0	24.73880551783301	7.140900591879799	6.116586869070018	-1.188421250186364	142.2980048580122	0	0
0.04	-0.8865794956340539	-1.356060879921263	28.01585874121725	0	0.9399999999999999	0	3.434427298613937	-1.602021024159806	-1.178764242286623	4.726292722380834	0.08248936941859185	0	0	0	3.434427298613937	-1.602021024159806	-1.178764242286623	4.726292722380834	0.08248936941859185	0	0	0	0.5882979176508054	0.3826851436153954	9.794507894444036	23.22929861697117	-6.658430419627617	13.65426373665898	14.2552553443223	152.5459064279362	0	0	24.74765295438526	7.156655305015469	6.146793974042392	-1.147162969440331	142.2909930716299	0	0
0.06	-0.8830925057939117	-1.35067661286638	28.11335360183822	0	0.9399999999999999	0	4.453026284473277	-2.05506248605074	-1.537485887782732	5.737744971174639	0.1001425413867446	0	0	0	4.453026284473277	-2.05506248605074	-1.537485887782732	5.737744971174639	0.1001425413867446	0	0	0	0.5495383267373952	0.3826638917066956	9.691704464754197	23.26097670672345	-6.663415075645042	13.66229033778112	14.22976298834947	152.5492433103292	0	0	24.7843771820606	7.17264154492988	6.153585430185254	-1.147274681342317	142.3023777829361	0	0
0.08	-0.8880619902254382	-1.355814490626448	28.17151296761107	0	0.9399999999999999	0	5.233486684938556	-2.434377033648921	-1.811511276437246	6.637729117336643	0.1158502279530214	0	0	0	5.233486684938556	-2.434377033648921	-1.811511276437246	6.637729117336643	0.1158502279530214	0	0	0	0.5216506556266075	0.3691174912404397	9.651197871867154	23.2889888275917	-6.655648982125398	13.6432187413986	14.20303025186192	152.5388969921493	0	0	24.82216835369784	7.16998586883448	6.173079843047226	-1.145878761056437	142.3125668888181	0	0
0.1	-0.8852252697754265	-1.356840243450265	28.19444606326218	0	0.9399999999999999	0	5.390355718198606	-2.50072437158704	-1.865525114526962	6.790538130014589	0.1185172483509734	0	0	0	5.390355718198606	-2.50072437158704	-1.865525114526962	6.790538130014589	0.1185172483509734	0	0	0	0.5191576082593992	0.3634651229185863	9.640893904534641	23.27756330638586	-6.654833083858488	13.63949386287767	14.22925768881224	152.4706274655975	0	0	24.82728305237064	7.170588874926922	6.190113826862435	-1.170780403390987	142.2917142052335	0	0
0.12	-0.8982867264324071	-1.3719052863782	28.22058249956324	0	0.9399999999999999	0	5.53240169826554	-2.557669304795386	-1.914124123438122	6.920194401855685	0.1207801771904613	0	0	0	5.53240169826554	-2.557669304795386	-1.914124123438122	6.920194401855685	0.1207801771904613	0	0	0	0.4960592125150979	0.3526570784988045	9.631576885008217	23.33202580545462	-6.631915184713074	13.59569420969301	14.16657884114901	152.508301325571	0	0	24.88874963088476	7.17796283252499	6.192791523408101	-1.195172419903076	142.3176583452875	0	0
0.14	-0.9124584374203437	-1.386006633517778	28.22889715299495	0	0.9399999999999999	0	5.603736387159872	-2.588187055552031	-1.938884382944674	6.987451390436497	0.1219540330861727	0	0	0	5.603736387159872	-2.588187055552031	-1.938884382944674	6.987451390436497	0.1219540330861727	0	0	0	0.4745068430967054	0.3455853631241617	9.62022649159954	23.36271878477131	-6.627728297925338	13.57062291978242	14.1627400494971	152.5023094641473	0	0	24.91472969723524	7.176371557077581	6.172845309222619	-1.209730009706874	142.3004012143974	0	0
0.16	-0.9419951649505939	-1.42343241571294	28.27826770649324	0	0.9399999999999999	0	5.736063973282697	-2.644687283699402	-1.984331441312139	7.118850922797039	0.124247387561445	0	0	0	5.736063973282697	-2.644687283699402	-1.984331441312139	7.118850922797039	0.124247387561445	0	0	0	0.4269834872255823	0.3236418854712458	9.606787965489692	23.47449854530658	-6.592767332283407	13.48897250715348	14.07831691810002	152.6196491330547	0	0	25.01253624304218	7.172781974978	6.173476310790747	-1.179685891784259	142.3627195196095	0	0
0.18	-0.949338164948176	-1.443101488369206	28.3063448979342	0	0.9399999999999999	0	5.843084259963534	-2.687398928069279	-2.021054425434401	7.213379614858022	0.125897224475513	0	0	0	5.843084259963534	-2.687398928069279	-2.021054425434401	7.213379614858022	0.125897224475513	0	0	0	0.4079911954901994	0.3073958097394791	9.609382436739709	23.48094599932801	-6.594884144857782	13.48065998314547	14.12589385586225	152.5767228800686	0	0	25.05324996284492	7.155227594881513	6.211570406276002	-1.235451104038948	142.3184853978852	0	0
0.2	-0.9678810833066671	-1.464890278387356	28.33632820578263	0	0.9399999999999999	0	5.95711606136691	-2.733969700457505	-2.060101911013893	7.319301503510681	0.1277459101824327	0	0	0	5.95711606136691	-2.733969700457505	-2.060101911013893	7.319301503510681	0.1277459101824327	0	0	0	0.3779284935956999	0.2945095268137886	9.605741267281443	23.52877004506946	-6.585141818959128	13.49097278917912	14.12688627516815	152.5605051827414	0	0	25.11302255155511	7.170166197859548	6.237168719907555	-1.216456830711413	142.3256320205051	0	0
0.22	-0.9973388098167508	-1.495955158056901	28.35519981572109	0	0.9399999999999999	0	6.034057228003392	-2.767765267619755	-2.086593252615967	7.398294449068924	0.1291245971682727	0	0	0	6.034057228003392	-2.767765267619755	-2.086593252615967	7.398294449068924	0.1291245971682727	0	0	0	0.3349630834486106	0.279691584944194	9.598993954296835	23.60680587089698	-6.546499917415916	13.48010033770032	14.06882030654105	152.6082456103325	0	0	25.17868035569964	7.161077419260885	6.217815622832155	-1.168005045079671	142.3596996710686	0	0
0.24	-1.002378183459184	-1.506008425527526	28.37494973026799	0	0.9399999999999999	0	6.141393087015857	-2.81078400214329	-2.123244178261071	7.495805547307762	0.130826486889776	0	0	0	6.141393087015857	-2.81078400214329	-2.123244178261071	7.495805547307762	0.130826486889776	0	0	0	0.3225147856995849	0.2708006589235654	9.595281929230202	23.61651341822024	-6.533397485497819	13.50114130288251	14.07643795659944	152.5649462218611	0	0	25.17685568310723	7.166656475005276	6.210388251697058	-1.207014341937984	142.3267843218489	0	0
0.26	-1.027853689607503	-1.542486061726844	28.39970123308023	0	0.9399999999999999	0	6.219438697837579	-2.845333787144529	-2.15007333429963	7.577560260776946	0.1322533758188378	0	0	0	6.219438697837579	-2.845333787144529	-2.15007333429963	7.577560260776946	0.1322533758188378	0	0	0	0.2806058712682415	0.2492994434674362	9.593981430182547	23.69618971615958	-6.492131817360034	13.45511322613356	14.02439014748265	152.5903857533541	0	0	25.2303359706196	7.149796167946524	6.199382282213188	-1.154609286267869	142.355917354932	0	0
